PathFileType	4	(X/Y/Z)	/home/nbianco/projects/addbio/data/HamnerRunning2013/Processed/subject20//results/MarkerData/run300.trc
DataRate	CameraRate	NumFrames	NumMarkers	Units	OrigDataRate	OrigDataStartFrame	OrigNumFrames
120.005	120.005	9	42	m	120.005	121	242
Frame#	Time	C7			CLAV			LACR			LASI			LCAL			LFAradius			LFAsuperior			LFAulna			LLEL			LMEL			LMT5			LPSI			LTB1			LTB2			LTB3			LTH1			LTH2			LTH3			LTOE			LUA1			LUA2			LUA3			RACR			RASI			RCAL			RFAradius			RFAsuperior			RFAulna			RLEL			RMEL			RMT5			RPSI			RTB1			RTB2			RTB3			RTH1			RTH2			RTH3			RTOE			RUA1			RUA2			RUA3		
		X1	Y1	Z1	X2	Y2	Z2	X3	Y3	Z3	X4	Y4	Z4	X5	Y5	Z5	X6	Y6	Z6	X7	Y7	Z7	X8	Y8	Z8	X9	Y9	Z9	X10	Y10	Z10	X11	Y11	Z11	X12	Y12	Z12	X13	Y13	Z13	X14	Y14	Z14	X15	Y15	Z15	X16	Y16	Z16	X17	Y17	Z17	X18	Y18	Z18	X19	Y19	Z19	X20	Y20	Z20	X21	Y21	Z21	X22	Y22	Z22	X23	Y23	Z23	X24	Y24	Z24	X25	Y25	Z25	X26	Y26	Z26	X27	Y27	Z27	X28	Y28	Z28	X29	Y29	Z29	X30	Y30	Z30	X31	Y31	Z31	X32	Y32	Z32	X33	Y33	Z33	X34	Y34	Z34	X35	Y35	Z35	X36	Y36	Z36	X37	Y37	Z37	X38	Y38	Z38	X39	Y39	Z39	X40	Y40	Z40	X41	Y41	Z41	X42	Y42	Z42

122	1.175	0.704291	1.5352	-0.36753	0.830159	1.44761	-0.369331	0.700744	1.48484	-0.553389	0.771138	1.03877	-0.486254	0.836267	0.0970875	-0.396222	0.731174	1.25025	-0.594661	0.595996	1.29256	-0.698736	0.722348	1.19595	-0.628302	0.525443	1.30684	-0.707347	0.478165	1.27038	-0.636719	1.02936	0.101768	-0.476509	0.607141	1.06261	-0.420817	0.940062	0.430354	-0.431611	0.904377	0.319049	-0.478878	0.930676	0.241518	-0.403438	0.766965	0.890619	-0.542187	0.856916	0.798438	-0.532649	0.833461	0.647901	-0.506778	1.0491	0.143754	-0.394002	0.64636	1.45162	-0.606659	0.570075	1.41373	-0.588835	0.594427	1.3858	-0.657645	0.769283	1.47956	-0.191457	0.766623	1.0354	-0.249847	0.173899	0.422398	-0.299411	0.869501	1.2324	-0.242097	0.80414	1.21899	-0.0897889	0.866156	1.16699	-0.230953	0.743519	1.21878	-0.0303842	0.664866	1.19113	-0.070419	0.152426	0.231689	-0.222939	0.60562	1.07046	-0.332191	0.491192	0.435095	-0.275054	0.411487	0.443162	-0.223903	0.32113	0.367939	-0.286126	0.689095	0.848326	-0.208211	0.710914	0.715958	-0.229139	0.595553	0.622972	-0.224044	0.194902	0.204463	-0.306769	0.765528	1.37827	-0.117896	0.790874	1.31271	-0.115172	0.703395	1.30058	-0.0510574
123	1.18333	0.704351	1.53093	-0.370134	0.830205	1.44278	-0.370353	0.702777	1.47932	-0.555832	0.770863	1.03519	-0.486637	0.833689	0.0929539	-0.397995	0.736341	1.24602	-0.598467	0.601212	1.28645	-0.702976	0.728796	1.19195	-0.632614	0.530383	1.29971	-0.711641	0.483498	1.26171	-0.641822	1.02596	0.0945369	-0.477382	0.606769	1.05616	-0.419269	0.936282	0.424342	-0.431762	0.901233	0.31331	-0.479936	0.928631	0.235228	-0.405063	0.765135	0.885793	-0.543256	0.853733	0.791602	-0.533103	0.830546	0.642187	-0.506696	1.04686	0.135399	-0.39477	0.64919	1.44544	-0.610075	0.572886	1.40632	-0.592517	0.597995	1.37908	-0.661104	0.768918	1.4761	-0.193134	0.767503	1.03169	-0.24912	0.180159	0.442099	-0.301552	0.866082	1.22576	-0.242643	0.800096	1.2147	-0.0904683	0.861583	1.16055	-0.231084	0.739473	1.21612	-0.0309902	0.660638	1.1896	-0.0711195	0.146779	0.255172	-0.220229	0.605667	1.06463	-0.330711	0.49784	0.433055	-0.274014	0.418452	0.446803	-0.223478	0.323429	0.377939	-0.285298	0.694818	0.843139	-0.207975	0.719061	0.711759	-0.228455	0.606606	0.615484	-0.222559	0.187447	0.222736	-0.301584	0.763491	1.37539	-0.118991	0.788293	1.30973	-0.115359	0.700236	1.29861	-0.0521513
124	1.19167	0.704221	1.52589	-0.372772	0.830121	1.4373	-0.371115	0.704913	1.47299	-0.558345	0.770553	1.03094	-0.487342	0.826277	0.0918213	-0.3986	0.742019	1.24083	-0.602373	0.606897	1.27913	-0.707324	0.735699	1.18694	-0.636824	0.5359	1.29141	-0.716315	0.489308	1.25191	-0.647221	1.01752	0.0847942	-0.478015	0.606336	1.04902	-0.417547	0.931995	0.417505	-0.432008	0.896952	0.306673	-0.480492	0.924688	0.227938	-0.406384	0.763485	0.880306	-0.543673	0.850979	0.785121	-0.53202	0.827522	0.635892	-0.506748	1.04075	0.12232	-0.395121	0.652167	1.43825	-0.6136	0.575799	1.39787	-0.596577	0.601988	1.37123	-0.664841	0.767999	1.47188	-0.194674	0.768454	1.02728	-0.248394	0.189526	0.460728	-0.303758	0.862577	1.21805	-0.242602	0.795537	1.20961	-0.0907544	0.856792	1.15294	-0.230513	0.734774	1.2128	-0.0315276	0.65574	1.18754	-0.0718638	0.14436	0.278517	-0.217478	0.606175	1.05768	-0.329108	0.505537	0.430762	-0.272655	0.42689	0.449915	-0.222743	0.327771	0.387625	-0.284501	0.700231	0.837388	-0.207544	0.727182	0.706604	-0.22759	0.617906	0.607451	-0.22063	0.18236	0.240695	-0.295907	0.761023	1.37182	-0.120057	0.785115	1.30578	-0.115719	0.696725	1.29598	-0.0531981
125	1.2	0.703929	1.52005	-0.37542	0.829974	1.43124	-0.371709	0.707185	1.46589	-0.560916	0.770215	1.02583	-0.488259	0.813303	0.093033	-0.397747	0.748422	1.23492	-0.606472	0.613138	1.2708	-0.711965	0.743118	1.18096	-0.640946	0.541987	1.28202	-0.721252	0.49547	1.24109	-0.65282	1.00375	0.0743977	-0.478216	0.605766	1.04118	-0.415858	0.927379	0.409714	-0.432111	0.891169	0.29898	-0.479781	0.917767	0.219884	-0.406371	0.762207	0.873825	-0.543086	0.848989	0.778986	-0.529354	0.824409	0.628986	-0.506921	1.02968	0.106864	-0.394514	0.65529	1.43007	-0.617156	0.578866	1.38845	-0.600995	0.606416	1.3623	-0.668764	0.76658	1.46696	-0.19609	0.769378	1.02221	-0.247861	0.201618	0.477807	-0.305951	0.858932	1.20925	-0.24203	0.790537	1.20387	-0.0904728	0.851754	1.14419	-0.229199	0.729439	1.20888	-0.0319929	0.650136	1.18495	-0.0726614	0.145188	0.301105	-0.214851	0.606862	1.04966	-0.327487	0.514192	0.42821	-0.270918	0.436633	0.452407	-0.221711	0.334136	0.396837	-0.283941	0.705255	0.830957	-0.207051	0.735376	0.700695	-0.226674	0.62945	0.598963	-0.218336	0.18011	0.258233	-0.290717	0.758162	1.36754	-0.121155	0.781372	1.30089	-0.116325	0.692821	1.29271	-0.054263
126	1.20833	0.70349	1.51339	-0.378077	0.82995	1.42464	-0.372253	0.709575	1.45815	-0.563464	0.769747	1.01974	-0.489283	0.794962	0.0952347	-0.395831	0.75558	1.22839	-0.610696	0.61997	1.26164	-0.716892	0.751169	1.17405	-0.645048	0.548656	1.27169	-0.726331	0.501967	1.22938	-0.65853	0.985039	0.0659589	-0.47781	0.604763	1.03243	-0.414352	0.922479	0.40125	-0.431764	0.88337	0.290843	-0.477626	0.906834	0.211913	-0.404431	0.761213	0.866549	-0.54174	0.84798	0.773247	-0.525832	0.821975	0.621995	-0.507422	1.01311	0.0929228	-0.392689	0.658573	1.42094	-0.620644	0.582143	1.37816	-0.605695	0.611277	1.35237	-0.672791	0.764788	1.46148	-0.197411	0.770244	1.01647	-0.247609	0.215971	0.492981	-0.308055	0.855097	1.19936	-0.24102	0.785122	1.19763	-0.0896033	0.846456	1.13441	-0.227165	0.723478	1.20448	-0.0324107	0.643881	1.18187	-0.073561	0.149189	0.322342	-0.212475	0.607299	1.04059	-0.32597	0.523794	0.42542	-0.268741	0.447516	0.454251	-0.220384	0.342551	0.405312	-0.28368	0.709978	0.823891	-0.20662	0.743694	0.694472	-0.225606	0.641195	0.590155	-0.215859	0.181109	0.275135	-0.286766	0.754921	1.36255	-0.122335	0.777088	1.29514	-0.117232	0.688453	1.28885	-0.0554193
127	1.21667	0.702927	1.50599	-0.380736	0.830327	1.41751	-0.372764	0.712054	1.45002	-0.565904	0.769001	1.01271	-0.490436	0.772668	0.0972389	-0.393628	0.763338	1.22119	-0.614822	0.627382	1.25174	-0.721926	0.759939	1.16627	-0.649138	0.555943	1.26055	-0.731443	0.508968	1.2169	-0.664262	0.96261	0.061178	-0.476785	0.602921	1.02267	-0.412985	0.917075	0.392949	-0.430811	0.87336	0.283621	-0.474767	0.891908	0.205262	-0.400992	0.760086	0.859248	-0.540353	0.847824	0.768138	-0.522732	0.821187	0.615816	-0.508591	0.991845	0.0835989	-0.389996	0.66207	1.41089	-0.623982	0.585671	1.36712	-0.610559	0.616589	1.34158	-0.676881	0.762804	1.45561	-0.198623	0.771005	1.01005	-0.247669	0.232166	0.506067	-0.309935	0.85103	1.18843	-0.239608	0.779229	1.19098	-0.0883813	0.840895	1.12376	-0.224451	0.716873	1.19972	-0.0328195	0.637128	1.17843	-0.0746517	0.156221	0.341703	-0.210401	0.606976	1.0305	-0.324612	0.534465	0.422478	-0.266155	0.459487	0.455475	-0.218783	0.353023	0.412743	-0.283537	0.714599	0.816433	-0.206341	0.752091	0.688421	-0.224239	0.653109	0.581227	-0.213395	0.185563	0.291027	-0.28427	0.751306	1.35689	-0.123583	0.772255	1.28866	-0.118408	0.68355	1.28451	-0.0567102
128	1.225	0.702316	1.49822	-0.383378	0.831343	1.40988	-0.373088	0.714621	1.44182	-0.568233	0.767894	1.00509	-0.491867	0.748518	0.0986294	-0.391824	0.771526	1.2133	-0.618587	0.635387	1.24111	-0.726838	0.769427	1.15773	-0.653064	0.563902	1.24873	-0.736474	0.51677	1.20379	-0.66992	0.938213	0.0598354	-0.475413	0.600019	1.01233	-0.411483	0.910775	0.385935	-0.429473	0.861563	0.278726	-0.472468	0.874365	0.200927	-0.397395	0.758329	0.852908	-0.539604	0.847909	0.763955	-0.52115	0.822274	0.611199	-0.510635	0.967776	0.0793585	-0.387313	0.66586	1.40004	-0.627145	0.589458	1.35546	-0.615478	0.622404	1.33011	-0.681002	0.760813	1.44958	-0.199641	0.771519	1.00295	-0.248052	0.249872	0.517049	-0.31137	0.846721	1.17658	-0.237724	0.772716	1.18386	-0.0872068	0.83505	1.11239	-0.221075	0.709584	1.19479	-0.0332682	0.630055	1.17487	-0.0760645	0.166103	0.358727	-0.208608	0.605448	1.01965	-0.323321	0.546438	0.419546	-0.263358	0.472647	0.456145	-0.216988	0.365458	0.418908	-0.283173	0.719269	0.808987	-0.206241	0.76044	0.682963	-0.22255	0.665222	0.57249	-0.211083	0.193434	0.305408	-0.282904	0.747329	1.35071	-0.12483	0.766799	1.28165	-0.119764	0.67806	1.27989	-0.0581553
129	1.23333	0.701836	1.49069	-0.385977	0.833008	1.40201	-0.372964	0.717254	1.43384	-0.570538	0.766474	0.997427	-0.493678	0.724276	0.0996452	-0.390706	0.780126	1.2048	-0.621795	0.644087	1.22982	-0.731392	0.779575	1.14867	-0.656537	0.572624	1.23638	-0.74128	0.525628	1.19021	-0.675383	0.913427	0.0602987	-0.474172	0.596303	1.0025	-0.409493	0.903214	0.380982	-0.428311	0.848767	0.27665	-0.47166	0.856075	0.199016	-0.395017	0.755738	0.848197	-0.539688	0.847299	0.760772	-0.521319	0.824148	0.608221	-0.513367	0.942943	0.0782385	-0.385532	0.669943	1.38865	-0.630168	0.593496	1.34338	-0.62036	0.62876	1.31821	-0.685078	0.758923	1.44365	-0.200342	0.771536	0.995294	-0.248709	0.268794	0.526036	-0.312123	0.842199	1.16396	-0.235243	0.765441	1.17622	-0.0863776	0.828858	1.10038	-0.217027	0.701565	1.18989	-0.0338353	0.622757	1.17147	-0.0779565	0.178649	0.372991	-0.207019	0.602573	1.00884	-0.321863	0.559943	0.416824	-0.260689	0.487192	0.456344	-0.215159	0.379681	0.423761	-0.282345	0.723944	0.802038	-0.206251	0.768619	0.678408	-0.220682	0.677633	0.564383	-0.208977	0.204481	0.317732	-0.28205	0.74303	1.34432	-0.126007	0.760574	1.27446	-0.121264	0.671951	1.27531	-0.0598044
130	1.24167	0.701735	1.48412	-0.388511	0.835009	1.39437	-0.372205	0.719847	1.42625	-0.572923	0.764874	0.990406	-0.495673	0.700645	0.100629	-0.390175	0.789287	1.1959	-0.624313	0.653672	1.21813	-0.735308	0.790359	1.13941	-0.659289	0.582248	1.2237	-0.745656	0.535641	1.17634	-0.680511	0.889036	0.0609031	-0.473462	0.592505	0.994623	-0.406871	0.894123	0.377909	-0.427888	0.835477	0.276488	-0.472334	0.838062	0.198602	-0.394344	0.75256	0.845122	-0.540278	0.845178	0.758244	-0.522589	0.824725	0.606153	-0.516193	0.918508	0.0777285	-0.385002	0.674126	1.37722	-0.63305	0.597777	1.33105	-0.62507	0.635615	1.30622	-0.68892	0.757104	1.4381	-0.200666	0.770798	0.987423	-0.249449	0.288556	0.533194	-0.312042	0.837517	1.15077	-0.232081	0.757355	1.1682	-0.0859046	0.822212	1.08784	-0.212322	0.692824	1.18527	-0.0346478	0.615224	1.16845	-0.0804697	0.19369	0.38409	-0.205552	0.598699	0.999341	-0.320011	0.575079	0.414485	-0.258494	0.503267	0.456159	-0.213465	0.395527	0.427426	-0.28115	0.728365	0.796022	-0.206225	0.776601	0.674933	-0.21886	0.690476	0.557414	-0.207053	0.218367	0.327534	-0.281197	0.738476	1.33817	-0.12711	0.753467	1.26758	-0.123005	0.66521	1.27114	-0.0617978
